<svg width="192" height="192" viewBox="0 0 192 192" fill="none" xmlns="http://www.w3.org/2000/svg">
<mask id="path-1-inside-1_2_14" fill="white">
<path d="M138.6 80.3C140.4 66.3 141.2 63.9 145.7 60C154.1 52.6 164 59.6 164 73.2C164 86.3 157.5 97.6 149.3 98.7C146.9 99 143.8 98.7 142.1 98.1C137.4 96.1 136.9 93.6 138.6 80.3Z"/>
<path fill-rule="evenodd" clip-rule="evenodd" d="M11.5 1.9C6.7 4.1 3.6 7.3 1.5 12.2C0.2 15.5 0 26 0 96.2C0 172.1 0.1 176.7 1.9 180.5C4.1 185.3 7.3 188.4 12.2 190.5C15.5 191.8 26 192 96.2 192C172.1 192 176.7 191.9 180.5 190.1C185.3 187.9 188.4 184.7 190.5 179.8C191.8 176.5 192 166 192 95.8C192 20.1 191.9 15.3 190.1 11.5C187.9 6.5 183.2 2.4 178.2 1C175.8 0.4 146.7 0 95 0C19.8 0 15.3 0.1 11.5 1.9ZM106.7 59.4C106.2 54.2 103.1 49.8 98.8 47.7C90.2 43.6 78.8 45.3 72.6 51.5L69.2 54.9L67.5 52.4C63.3 45.9 48.6 43.9 39.4 48.5C35.6293 50.3854 34.4791 51.045 34.1358 50.7537C33.951 50.5969 34 50.1648 34 49.5C34 47.4 30.7 46 25.8 46C22.3336 46 20.3119 45.9048 19.0137 46.8275C17.0536 48.2206 16.743 51.9343 15.6 61.8C15.1757 65.2369 14.6974 69.286 14.2261 73.2749C13.5868 78.6869 12.9606 83.9883 12.5 87.5C12.3977 88.3769 12.2911 89.288 12.1828 90.2143C12.1812 90.2277 12.1796 90.2411 12.178 90.2546L12.1777 90.2579C11.546 95.6573 10.8555 101.56 10.6 104.2L10 110H26.9L27.4 106.7C27.7 105 28.9 96.3 30 87.5C32.5 68.9 33.5 64.6 36.2 60.7C40.3 54.9 48.7 54.6 51.6 60.2C53 63 53 64.4 51.5 77.4C50.6 85.1 49.5 94.5 48.9 98.2C47.9717 105.025 47.4311 107.915 48.613 109.132C49.5956 110.144 51.7689 110 55.9 110C59.5357 110 61.6125 110.245 62.9311 109.359C64.9854 107.98 65.1991 103.86 66.6 91.8C69.4 67.3 69.9 64.9 72.6 61.3C75.7 57.2 79.3 55.7 83.8 56.5C88.9 57.4 90.2 61.4 88.9 72.6C86.1 98.5 86.4 101.3 92.5 107C94.9 109.2 96 109.5 103 109.5C109.6 109.5 111.3 109.1 113.9 107.3C117.5 104.5 118.9 104.4 118.4 106.7C118 108.8 114 143.5 114 145.6C114 146.7 115.7 147 121.9 147C126.3 147 130.1 146.7 130.3 146.3C130.6 145.8 131.5 138.7 132.4 130.5C133.981 116.21 134.122 111.835 136.187 110.55C137.387 109.803 139.238 110.1 142.4 110.1C156.4 110.2 165.3 106.8 172.5 98.8C178.9 91.6 181.3 84.7 181.4 73C181.5 62 180.2 58.4 173.8 52C168.2 46.5 161.2 44.4 153.3 46C150.1 46.7 146.4 47.9 145.1 48.7C142.9 50.1 142.6 50.1 141.8 48.6C140.6 46.4 133.9 44.8 129.2 45.6L125.3 46.2L124.7 51.9C120.9 87 119.4 92.7 112.6 96.9C108.2 99.6 106.4 99.5 104.4 96.5C102.9 94.2 102.9 93 105 78.8C106.2 70.4 107 61.7 106.7 59.4Z"/>
<path fill-rule="evenodd" clip-rule="evenodd" d="M98.8 47.7C103.1 49.8 106.2 54.2 106.7 59.4C107 61.7 106.2 70.4 105 78.8C102.9 93 102.9 94.2 104.4 96.5C106.4 99.5 108.2 99.6 112.6 96.9C119.4 92.7 120.9 87 124.7 51.9L125.3 46.2L129.2 45.6C133.9 44.8 140.6 46.4 141.8 48.6C142.6 50.1 142.9 50.1 145.1 48.7C146.4 47.9 150.1 46.7 153.3 46C161.2 44.4 168.2 46.5 173.8 52C180.2 58.4 181.5 62 181.4 73C181.3 84.7 178.9 91.6 172.5 98.8C165.3 106.8 156.4 110.2 142.4 110.1C139.238 110.1 137.387 109.803 136.187 110.55C134.122 111.835 133.981 116.21 132.4 130.5C131.5 138.7 130.6 145.8 130.3 146.3C130.1 146.7 126.3 147 121.9 147C115.7 147 114 146.7 114 145.6C114 143.5 118 108.8 118.4 106.7C118.9 104.4 117.5 104.5 113.9 107.3C111.3 109.1 109.6 109.5 103 109.5C96 109.5 94.9 109.2 92.5 107C86.4 101.3 86.1 98.5 88.9 72.6C90.2 61.4 88.9 57.4 83.8 56.5C79.3 55.7 75.7 57.2 72.6 61.3C69.9 64.9 69.4 67.3 66.6 91.8C65.1991 103.86 64.9854 107.98 62.9311 109.359C61.6125 110.245 59.5357 110 55.9 110C51.7689 110 49.5956 110.144 48.613 109.132C47.4311 107.915 47.9717 105.025 48.9 98.2C49.5 94.5 50.6 85.1 51.5 77.4C53 64.4 53 63 51.6 60.2C48.7 54.6 40.3 54.9 36.2 60.7C33.5 64.6 32.5 68.9 30 87.5C28.9 96.3 27.7 105 27.4 106.7L26.9 110H10L10.6 104.2C10.8555 101.56 11.546 95.6573 12.1777 90.2579L12.178 90.2546L12.1828 90.2143C12.2911 89.288 12.3977 88.3769 12.5 87.5C12.9606 83.9883 13.5868 78.6869 14.2261 73.2749C14.6974 69.286 15.1757 65.2369 15.6 61.8C16.743 51.9343 17.0536 48.2206 19.0137 46.8275C20.3119 45.9048 22.3336 46 25.8 46C30.7 46 34 47.4 34 49.5C34 50.1648 33.951 50.5969 34.1358 50.7537C34.4791 51.045 35.6293 50.3854 39.4 48.5C48.6 43.9 63.3 45.9 67.5 52.4L69.2 54.9L72.6 51.5C78.8 45.3 90.2 43.6 98.8 47.7ZM138.6 80.3C140.4 66.3 141.2 63.9 145.7 60C154.1 52.6 164 59.6 164 73.2C164 86.3 157.5 97.6 149.3 98.7C146.9 99 143.8 98.7 142.1 98.1C137.4 96.1 136.9 93.6 138.6 80.3Z"/>
</mask>
<path d="M138.6 80.3C140.4 66.3 141.2 63.9 145.7 60C154.1 52.6 164 59.6 164 73.2C164 86.3 157.5 97.6 149.3 98.7C146.9 99 143.8 98.7 142.1 98.1C137.4 96.1 136.9 93.6 138.6 80.3Z" fill="black"/>
<path d="M138.6 80.3C140.4 66.3 141.2 63.9 145.7 60C154.1 52.6 164 59.6 164 73.2C164 86.3 157.5 97.6 149.3 98.7C146.9 99 143.8 98.7 142.1 98.1C137.4 96.1 136.9 93.6 138.6 80.3Z" fill="black"/>
<path fill-rule="evenodd" clip-rule="evenodd" d="M11.5 1.9C6.7 4.1 3.6 7.3 1.5 12.2C0.2 15.5 0 26 0 96.2C0 172.1 0.1 176.7 1.9 180.5C4.1 185.3 7.3 188.4 12.2 190.5C15.5 191.8 26 192 96.2 192C172.1 192 176.7 191.9 180.5 190.1C185.3 187.9 188.4 184.7 190.5 179.8C191.8 176.5 192 166 192 95.8C192 20.1 191.9 15.3 190.1 11.5C187.9 6.5 183.2 2.4 178.2 1C175.8 0.4 146.7 0 95 0C19.8 0 15.3 0.1 11.5 1.9ZM106.7 59.4C106.2 54.2 103.1 49.8 98.8 47.7C90.2 43.6 78.8 45.3 72.6 51.5L69.2 54.9L67.5 52.4C63.3 45.9 48.6 43.9 39.4 48.5C35.6293 50.3854 34.4791 51.045 34.1358 50.7537C33.951 50.5969 34 50.1648 34 49.5C34 47.4 30.7 46 25.8 46C22.3336 46 20.3119 45.9048 19.0137 46.8275C17.0536 48.2206 16.743 51.9343 15.6 61.8C15.1757 65.2369 14.6974 69.286 14.2261 73.2749C13.5868 78.6869 12.9606 83.9883 12.5 87.5C12.3977 88.3769 12.2911 89.288 12.1828 90.2143C12.1812 90.2277 12.1796 90.2411 12.178 90.2546L12.1777 90.2579C11.546 95.6573 10.8555 101.56 10.6 104.2L10 110H26.9L27.4 106.7C27.7 105 28.9 96.3 30 87.5C32.5 68.9 33.5 64.6 36.2 60.7C40.3 54.9 48.7 54.6 51.6 60.2C53 63 53 64.4 51.5 77.4C50.6 85.1 49.5 94.5 48.9 98.2C47.9717 105.025 47.4311 107.915 48.613 109.132C49.5956 110.144 51.7689 110 55.9 110C59.5357 110 61.6125 110.245 62.9311 109.359C64.9854 107.98 65.1991 103.86 66.6 91.8C69.4 67.3 69.9 64.9 72.6 61.3C75.7 57.2 79.3 55.7 83.8 56.5C88.9 57.4 90.2 61.4 88.9 72.6C86.1 98.5 86.4 101.3 92.5 107C94.9 109.2 96 109.5 103 109.5C109.6 109.5 111.3 109.1 113.9 107.3C117.5 104.5 118.9 104.4 118.4 106.7C118 108.8 114 143.5 114 145.6C114 146.7 115.7 147 121.9 147C126.3 147 130.1 146.7 130.3 146.3C130.6 145.8 131.5 138.7 132.4 130.5C133.981 116.21 134.122 111.835 136.187 110.55C137.387 109.803 139.238 110.1 142.4 110.1C156.4 110.2 165.3 106.8 172.5 98.8C178.9 91.6 181.3 84.7 181.4 73C181.5 62 180.2 58.4 173.8 52C168.2 46.5 161.2 44.4 153.3 46C150.1 46.7 146.4 47.9 145.1 48.7C142.9 50.1 142.6 50.1 141.8 48.6C140.6 46.4 133.9 44.8 129.2 45.6L125.3 46.2L124.7 51.9C120.9 87 119.4 92.7 112.6 96.9C108.2 99.6 106.4 99.5 104.4 96.5C102.9 94.2 102.9 93 105 78.8C106.2 70.4 107 61.7 106.7 59.4Z" fill="black"/>
<path fill-rule="evenodd" clip-rule="evenodd" d="M98.8 47.7C103.1 49.8 106.2 54.2 106.7 59.4C107 61.7 106.2 70.4 105 78.8C102.9 93 102.9 94.2 104.4 96.5C106.4 99.5 108.2 99.6 112.6 96.9C119.4 92.7 120.9 87 124.7 51.9L125.3 46.2L129.2 45.6C133.9 44.8 140.6 46.4 141.8 48.6C142.6 50.1 142.9 50.1 145.1 48.7C146.4 47.9 150.1 46.7 153.3 46C161.2 44.4 168.2 46.5 173.8 52C180.2 58.4 181.5 62 181.4 73C181.3 84.7 178.9 91.6 172.5 98.8C165.3 106.8 156.4 110.2 142.4 110.1C139.238 110.1 137.387 109.803 136.187 110.55C134.122 111.835 133.981 116.21 132.4 130.5C131.5 138.7 130.6 145.8 130.3 146.3C130.1 146.7 126.3 147 121.9 147C115.7 147 114 146.7 114 145.6C114 143.5 118 108.8 118.4 106.7C118.9 104.4 117.5 104.5 113.9 107.3C111.3 109.1 109.6 109.5 103 109.5C96 109.5 94.9 109.2 92.5 107C86.4 101.3 86.1 98.5 88.9 72.6C90.2 61.4 88.9 57.4 83.8 56.5C79.3 55.7 75.7 57.2 72.6 61.3C69.9 64.9 69.4 67.3 66.6 91.8C65.1991 103.86 64.9854 107.98 62.9311 109.359C61.6125 110.245 59.5357 110 55.9 110C51.7689 110 49.5956 110.144 48.613 109.132C47.4311 107.915 47.9717 105.025 48.9 98.2C49.5 94.5 50.6 85.1 51.5 77.4C53 64.4 53 63 51.6 60.2C48.7 54.6 40.3 54.9 36.2 60.7C33.5 64.6 32.5 68.9 30 87.5C28.9 96.3 27.7 105 27.4 106.7L26.9 110H10L10.6 104.2C10.8555 101.56 11.546 95.6573 12.1777 90.2579L12.178 90.2546L12.1828 90.2143C12.2911 89.288 12.3977 88.3769 12.5 87.5C12.9606 83.9883 13.5868 78.6869 14.2261 73.2749C14.6974 69.286 15.1757 65.2369 15.6 61.8C16.743 51.9343 17.0536 48.2206 19.0137 46.8275C20.3119 45.9048 22.3336 46 25.8 46C30.7 46 34 47.4 34 49.5C34 50.1648 33.951 50.5969 34.1358 50.7537C34.4791 51.045 35.6293 50.3854 39.4 48.5C48.6 43.9 63.3 45.9 67.5 52.4L69.2 54.9L72.6 51.5C78.8 45.3 90.2 43.6 98.8 47.7ZM138.6 80.3C140.4 66.3 141.2 63.9 145.7 60C154.1 52.6 164 59.6 164 73.2C164 86.3 157.5 97.6 149.3 98.7C146.9 99 143.8 98.7 142.1 98.1C137.4 96.1 136.9 93.6 138.6 80.3Z" fill="black"/>
<path fill-rule="evenodd" clip-rule="evenodd" d="M98.8 47.7C103.1 49.8 106.2 54.2 106.7 59.4C107 61.7 106.2 70.4 105 78.8C102.9 93 102.9 94.2 104.4 96.5C106.4 99.5 108.2 99.6 112.6 96.9C119.4 92.7 120.9 87 124.7 51.9L125.3 46.2L129.2 45.6C133.9 44.8 140.6 46.4 141.8 48.6C142.6 50.1 142.9 50.1 145.1 48.7C146.4 47.9 150.1 46.7 153.3 46C161.2 44.4 168.2 46.5 173.8 52C180.2 58.4 181.5 62 181.4 73C181.3 84.7 178.9 91.6 172.5 98.8C165.3 106.8 156.4 110.2 142.4 110.1C139.238 110.1 137.387 109.803 136.187 110.55C134.122 111.835 133.981 116.21 132.4 130.5C131.5 138.7 130.6 145.8 130.3 146.3C130.1 146.7 126.3 147 121.9 147C115.7 147 114 146.7 114 145.6C114 143.5 118 108.8 118.4 106.7C118.9 104.4 117.5 104.5 113.9 107.3C111.3 109.1 109.6 109.5 103 109.5C96 109.5 94.9 109.2 92.5 107C86.4 101.3 86.1 98.5 88.9 72.6C90.2 61.4 88.9 57.4 83.8 56.5C79.3 55.7 75.7 57.2 72.6 61.3C69.9 64.9 69.4 67.3 66.6 91.8C65.1991 103.86 64.9854 107.98 62.9311 109.359C61.6125 110.245 59.5357 110 55.9 110C51.7689 110 49.5956 110.144 48.613 109.132C47.4311 107.915 47.9717 105.025 48.9 98.2C49.5 94.5 50.6 85.1 51.5 77.4C53 64.4 53 63 51.6 60.2C48.7 54.6 40.3 54.9 36.2 60.7C33.5 64.6 32.5 68.9 30 87.5C28.9 96.3 27.7 105 27.4 106.7L26.9 110H10L10.6 104.2C10.8555 101.56 11.546 95.6573 12.1777 90.2579L12.178 90.2546L12.1828 90.2143C12.2911 89.288 12.3977 88.3769 12.5 87.5C12.9606 83.9883 13.5868 78.6869 14.2261 73.2749C14.6974 69.286 15.1757 65.2369 15.6 61.8C16.743 51.9343 17.0536 48.2206 19.0137 46.8275C20.3119 45.9048 22.3336 46 25.8 46C30.7 46 34 47.4 34 49.5C34 50.1648 33.951 50.5969 34.1358 50.7537C34.4791 51.045 35.6293 50.3854 39.4 48.5C48.6 43.9 63.3 45.9 67.5 52.4L69.2 54.9L72.6 51.5C78.8 45.3 90.2 43.6 98.8 47.7ZM138.6 80.3C140.4 66.3 141.2 63.9 145.7 60C154.1 52.6 164 59.6 164 73.2C164 86.3 157.5 97.6 149.3 98.7C146.9 99 143.8 98.7 142.1 98.1C137.4 96.1 136.9 93.6 138.6 80.3Z" fill="#39ff14"/>
<path d="M98.8 47.7L99.0194 47.2507L99.0152 47.2487L98.8 47.7ZM106.7 59.4L106.202 59.4479L106.203 59.4563L106.204 59.4647L106.7 59.4ZM72.6 51.5L72.2464 51.1464L72.2464 51.1464L72.6 51.5ZM69.2 54.9L68.7865 55.1812L69.1263 55.6808L69.5536 55.2536L69.2 54.9ZM67.5 52.4L67.0799 52.6714L67.0865 52.6812L67.5 52.4ZM39.4 48.5L39.1764 48.0528L39.1764 48.0528L39.4 48.5ZM34.1358 50.7537L34.4593 50.3725L34.4593 50.3725L34.1358 50.7537ZM19.0137 46.8275L18.724 46.4199L18.724 46.4199L19.0137 46.8275ZM15.6 61.8L16.0962 61.8613L16.0967 61.8575L15.6 61.8ZM14.2261 73.2749L13.7296 73.2162L13.7296 73.2162L14.2261 73.2749ZM12.5 87.5L12.0042 87.435L12.0034 87.4421L12.5 87.5ZM12.1777 90.2579L11.6811 90.1996L11.681 90.1998L12.1777 90.2579ZM10.6 104.2L11.0974 104.251L11.0977 104.248L10.6 104.2ZM10 110L9.50265 109.949L9.44561 110.5H10V110ZM26.9 110V110.5H27.3299L27.3944 110.075L26.9 110ZM27.4 106.7L26.9075 106.613L26.9056 106.625L27.4 106.7ZM30 87.5L29.5044 87.4334L29.5039 87.438L30 87.5ZM36.2 60.7L35.7917 60.4114L35.7889 60.4154L36.2 60.7ZM51.6 60.2L52.0473 59.9764L52.044 59.9701L51.6 60.2ZM51.5 77.4L51.9966 77.458L51.9967 77.4573L51.5 77.4ZM48.9 98.2L48.4063 98.1199L48.4046 98.1326L48.9 98.2ZM48.613 109.132L48.2543 109.481L48.2543 109.481L48.613 109.132ZM62.9311 109.359L62.6524 108.944L62.6524 108.944L62.9311 109.359ZM66.6 91.8L67.0967 91.8577L67.0968 91.8568L66.6 91.8ZM72.6 61.3L72.2012 60.9984L72.2 61L72.6 61.3ZM83.8 56.5L83.7125 56.9923L83.7131 56.9924L83.8 56.5ZM88.9 72.6L88.4033 72.5423L88.4029 72.5463L88.9 72.6ZM92.5 107L92.1586 107.365L92.1621 107.369L92.5 107ZM113.9 107.3L114.185 107.711L114.196 107.703L114.207 107.695L113.9 107.3ZM118.4 106.7L117.911 106.594L117.909 106.606L118.4 106.7ZM130.3 146.3L129.871 146.043L129.861 146.059L129.853 146.076L130.3 146.3ZM132.4 130.5L131.903 130.445L131.903 130.445L132.4 130.5ZM136.187 110.55L135.923 110.125L135.923 110.125L136.187 110.55ZM142.4 110.1L142.404 109.6H142.4V110.1ZM172.5 98.8L172.872 99.1345L172.874 99.1322L172.5 98.8ZM181.4 73L180.9 72.9955L180.9 72.9957L181.4 73ZM173.8 52L174.154 51.6464L174.15 51.6433L173.8 52ZM153.3 46L153.201 45.5099L153.193 45.5116L153.3 46ZM145.1 48.7L144.838 48.2741L144.832 48.2782L145.1 48.7ZM141.8 48.6L142.241 48.3647L142.239 48.3606L141.8 48.6ZM129.2 45.6L129.276 46.0943L129.284 46.0929L129.2 45.6ZM125.3 46.2L125.224 45.7058L124.843 45.7644L124.803 46.1477L125.3 46.2ZM124.7 51.9L125.197 51.9538L125.197 51.9523L124.7 51.9ZM112.6 96.9L112.862 97.3262L112.863 97.3254L112.6 96.9ZM104.4 96.5L103.981 96.7731L103.984 96.7774L104.4 96.5ZM105 78.8L105.495 78.8731L105.495 78.8707L105 78.8ZM145.7 60L146.027 60.3779L146.031 60.3752L145.7 60ZM138.6 80.3L138.104 80.2362L138.104 80.2366L138.6 80.3ZM149.3 98.7L149.362 99.1962L149.366 99.1956L149.3 98.7ZM142.1 98.1L141.904 98.5601L141.919 98.5663L141.934 98.5715L142.1 98.1ZM98.5806 48.1493C102.72 50.1707 105.718 54.4158 106.202 59.4479L107.198 59.3521C106.682 53.9842 103.48 49.4293 99.0194 47.2507L98.5806 48.1493ZM72.9536 51.8536C78.9896 45.8175 90.1572 44.1335 98.5848 48.1513L99.0152 47.2487C90.2428 43.0665 78.6104 44.7825 72.2464 51.1464L72.9536 51.8536ZM69.5536 55.2536L72.9536 51.8536L72.2464 51.1464L68.8465 54.5464L69.5536 55.2536ZM67.0865 52.6812L68.7865 55.1812L69.6135 54.6188L67.9135 52.1188L67.0865 52.6812ZM39.6236 48.9472C44.1137 46.7022 49.9823 46.0557 55.2567 46.7828C60.555 47.5132 65.0986 49.6048 67.08 52.6714L67.92 52.1286C65.7014 48.6952 60.795 46.5368 55.3933 45.7922C49.9677 45.0443 43.8863 45.6978 39.1764 48.0528L39.6236 48.9472ZM33.8123 51.1349C34.0918 51.3721 34.4434 51.3334 34.6868 51.2764C34.9535 51.214 35.2857 51.0817 35.6894 50.8983C36.5025 50.529 37.7504 49.8838 39.6236 48.9472L39.1764 48.0528C37.2789 49.0016 36.0663 49.6288 35.2758 49.9879C34.8777 50.1687 34.6223 50.2645 34.4589 50.3027C34.2723 50.3464 34.3514 50.2809 34.4593 50.3725L33.8123 51.1349ZM33.5 49.5C33.5 49.7966 33.4876 50.1172 33.4993 50.3431C33.5055 50.4635 33.5193 50.5979 33.5568 50.7258C33.5952 50.8566 33.6674 51.012 33.8123 51.1349L34.4593 50.3725C34.5118 50.417 34.5209 50.4596 34.5164 50.4445C34.5112 50.4265 34.5026 50.382 34.4979 50.2916C34.4879 50.096 34.5 49.8682 34.5 49.5H33.5ZM25.8 46.5C28.2113 46.5 30.1878 46.8457 31.5415 47.4225C32.9183 48.0091 33.5 48.7571 33.5 49.5H34.5C34.5 48.1429 33.4317 47.1409 31.9335 46.5025C30.4122 45.8543 28.2887 45.5 25.8 45.5V46.5ZM19.3033 47.235C19.8432 46.8513 20.5656 46.6549 21.6352 46.566C22.7091 46.4767 24.0491 46.5 25.8 46.5V45.5C24.0845 45.5 22.6804 45.4757 21.5523 45.5694C20.4199 45.6636 19.4823 45.8809 18.724 46.4199L19.3033 47.235ZM16.0967 61.8575C16.6699 56.9096 17.0304 53.5442 17.4908 51.2343C17.9548 48.9062 18.4952 47.8094 19.3033 47.235L18.724 46.4199C17.5721 47.2387 16.9772 48.6953 16.5101 51.0388C16.0394 53.4005 15.6731 56.8248 15.1033 61.7425L16.0967 61.8575ZM14.7227 73.3335C15.194 69.3443 15.6721 65.2966 16.0962 61.8613L15.1038 61.7387C14.6793 65.1772 14.2008 69.2277 13.7296 73.2162L14.7227 73.3335ZM12.9958 87.565C13.4568 84.0494 14.0835 78.7441 14.7227 73.3335L13.7296 73.2162C13.0901 78.6297 12.4643 83.9272 12.0042 87.435L12.9958 87.565ZM11.0977 104.248C11.3525 101.615 12.0422 95.7187 12.6743 90.316L11.681 90.1998C11.0498 95.5958 10.3584 101.506 10.1023 104.152L11.0977 104.248ZM10.4973 110.051L11.0973 104.251L10.1027 104.149L9.50265 109.949L10.4973 110.051ZM26.9056 106.625L26.4056 109.925L27.3944 110.075L27.8944 106.775L26.9056 106.625ZM29.5039 87.438C28.4034 96.2416 27.205 104.928 26.9076 106.613L27.8924 106.787C28.195 105.072 29.3966 96.3583 30.4961 87.562L29.5039 87.438ZM35.7889 60.4154C33.005 64.4366 31.9982 68.8798 29.5045 87.4334L30.4955 87.5666C33.0018 68.9202 33.995 64.7634 36.6111 60.9846L35.7889 60.4154ZM52.044 59.9701C50.4907 56.9707 47.4672 55.5699 44.3332 55.6753C41.2034 55.7805 37.9329 57.3824 35.7917 60.4114L36.6083 60.9886C38.5671 58.2176 41.5466 56.7695 44.3668 56.6747C47.1828 56.5801 49.8093 57.8293 51.156 60.4299L52.044 59.9701ZM51.9967 77.4573C52.7454 70.9687 53.1248 67.3366 53.1375 64.9777C53.1439 63.7903 53.0579 62.904 52.8723 62.1248C52.6862 61.3435 52.4051 60.6921 52.0472 59.9764L51.1528 60.4236C51.4949 61.1079 51.7388 61.6815 51.8995 62.3565C52.0608 63.0335 52.1436 63.8347 52.1375 64.9723C52.1252 67.2634 51.7546 70.8313 51.0033 77.3427L51.9967 77.4573ZM49.3936 98.28C49.9958 94.5659 51.0975 85.1502 51.9966 77.458L51.0034 77.342C50.1025 85.0498 49.0042 94.4341 48.4064 98.12L49.3936 98.28ZM48.9717 108.784C48.5489 108.349 48.3602 107.537 48.4643 105.799C48.5663 104.096 48.9289 101.698 49.3954 98.2674L48.4046 98.1326C47.9428 101.528 47.571 103.987 47.4661 105.739C47.3632 107.457 47.4952 108.699 48.2543 109.481L48.9717 108.784ZM55.9 109.5C53.8127 109.5 52.2712 109.536 51.1139 109.447C49.9437 109.358 49.3243 109.147 48.9717 108.784L48.2543 109.481C48.8843 110.129 49.8428 110.353 51.0377 110.444C52.2455 110.537 53.8562 110.5 55.9 110.5V109.5ZM62.6524 108.944C62.1124 109.307 61.3806 109.463 60.2627 109.512C59.1363 109.561 57.7514 109.5 55.9 109.5V110.5C57.6843 110.5 59.1556 110.561 60.3062 110.511C61.4652 110.461 62.4312 110.297 63.2097 109.775L62.6524 108.944ZM66.1033 91.7423C65.4009 97.7896 65.0001 101.807 64.5184 104.497C64.0307 107.22 63.485 108.385 62.6524 108.944L63.2097 109.775C64.4314 108.955 65.0198 107.37 65.5027 104.673C65.9917 101.943 66.3983 97.87 67.0967 91.8577L66.1033 91.7423ZM72.2 61C71.5109 61.9189 70.9482 62.78 70.4566 63.9446C69.9677 65.1026 69.5566 66.5425 69.147 68.6156C68.3296 72.7529 67.5022 79.5021 66.1032 91.7432L67.0968 91.8568C68.4978 79.5979 69.3204 72.8971 70.128 68.8094C70.531 66.77 70.9261 65.4037 71.3778 64.3335C71.8268 63.27 72.3391 62.4811 73 61.6L72.2 61ZM83.8875 56.0077C81.5583 55.5936 79.4326 55.7709 77.4792 56.6024C75.5292 57.4325 73.7893 58.898 72.2012 60.9984L72.9988 61.6016C74.5107 59.602 76.1208 58.2675 77.8708 57.5226C79.6174 56.7791 81.5417 56.6064 83.7125 56.9923L83.8875 56.0077ZM89.3967 72.6576C90.0467 67.0578 90.0623 63.1608 89.2264 60.5358C88.8034 59.2072 88.1566 58.1842 87.2498 57.4349C86.3459 56.688 85.2198 56.2428 83.8869 56.0076L83.7131 56.9924C84.9302 57.2072 85.8791 57.5995 86.6128 58.2057C87.3434 58.8095 87.8966 59.6553 88.2736 60.8392C89.0377 63.2392 89.0534 66.9422 88.4033 72.5423L89.3967 72.6576ZM92.8414 106.635C91.326 105.219 90.2081 104.016 89.4041 102.614C88.6043 101.219 88.0981 99.596 87.8598 97.3229C87.3791 92.7384 87.9947 85.6261 89.3971 72.6537L88.4029 72.5463C87.0053 85.4739 86.3709 92.7116 86.8652 97.4271C87.1144 99.804 87.652 101.569 88.5366 103.111C89.4169 104.646 90.624 105.931 92.1586 107.365L92.8414 106.635ZM103 109C99.4861 109 97.5237 108.922 96.1423 108.589C94.8106 108.267 94.0101 107.706 92.8379 106.631L92.1621 107.369C93.3899 108.494 94.3394 109.182 95.9077 109.561C97.4263 109.928 99.5139 110 103 110V109ZM113.615 106.889C112.353 107.763 111.34 108.278 109.849 108.585C108.33 108.899 106.302 109 103 109V110C106.298 110 108.42 109.901 110.051 109.565C111.71 109.222 112.847 108.637 114.185 107.711L113.615 106.889ZM118.889 106.806C119.017 106.216 119.057 105.655 118.873 105.231C118.772 104.998 118.602 104.804 118.359 104.689C118.127 104.579 117.872 104.562 117.629 104.591C117.154 104.647 116.584 104.894 115.94 105.27C115.284 105.652 114.502 106.198 113.593 106.905L114.207 107.695C115.098 107.002 115.841 106.485 116.444 106.133C117.06 105.774 117.483 105.615 117.746 105.584C117.871 105.569 117.922 105.588 117.931 105.593C117.935 105.595 117.936 105.595 117.937 105.597C117.938 105.598 117.946 105.607 117.955 105.629C118.006 105.745 118.033 106.034 117.911 106.594L118.889 106.806ZM114.5 145.6C114.5 145.367 114.559 144.625 114.67 143.459C114.78 142.308 114.938 140.774 115.128 138.984C115.51 135.405 116.022 130.806 116.547 126.207C117.599 116.99 118.696 107.819 118.891 106.794L117.909 106.606C117.704 107.681 116.601 116.91 115.553 126.093C115.028 130.694 114.515 135.295 114.134 138.878C113.943 140.67 113.785 142.208 113.675 143.364C113.566 144.506 113.5 145.308 113.5 145.6H114.5ZM121.9 146.5C118.793 146.5 116.862 146.424 115.712 146.22C115.133 146.118 114.816 145.992 114.653 145.876C114.528 145.786 114.5 145.713 114.5 145.6H113.5C113.5 146.037 113.685 146.414 114.072 146.69C114.421 146.939 114.917 147.095 115.538 147.205C116.788 147.426 118.807 147.5 121.9 147.5V146.5ZM129.853 146.076C129.88 146.022 129.912 145.988 129.93 145.972C129.948 145.955 129.961 145.947 129.962 145.946C129.962 145.946 129.944 145.956 129.896 145.973C129.8 146.007 129.647 146.046 129.43 146.087C129.002 146.166 128.39 146.24 127.634 146.302C126.126 146.425 124.09 146.5 121.9 146.5V147.5C124.11 147.5 126.174 147.425 127.716 147.298C128.485 147.235 129.136 147.159 129.613 147.07C129.85 147.026 130.061 146.975 130.229 146.916C130.312 146.887 130.4 146.85 130.48 146.801C130.55 146.759 130.672 146.674 130.747 146.524L129.853 146.076ZM131.903 130.445C131.453 134.544 131.004 138.365 130.629 141.223C130.442 142.652 130.274 143.837 130.135 144.693C130.065 145.122 130.003 145.463 129.95 145.709C129.924 145.833 129.901 145.927 129.882 145.993C129.859 146.074 129.853 146.074 129.871 146.043L130.729 146.557C130.785 146.464 130.821 146.349 130.844 146.268C130.872 146.171 130.9 146.053 130.928 145.918C130.986 145.649 131.051 145.289 131.122 144.854C131.263 143.982 131.433 142.785 131.621 141.352C131.996 138.485 132.447 134.656 132.897 130.555L131.903 130.445ZM135.923 110.125C135.288 110.52 134.836 111.136 134.483 112.013C134.133 112.88 133.865 114.039 133.618 115.568C133.125 118.625 132.691 123.317 131.903 130.445L132.897 130.555C133.689 123.392 134.117 118.752 134.606 115.728C134.85 114.216 135.103 113.147 135.41 112.387C135.713 111.635 136.053 111.222 136.451 110.974L135.923 110.125ZM142.4 109.6C141.617 109.6 140.914 109.582 140.277 109.565C139.642 109.549 139.066 109.535 138.548 109.545C137.525 109.564 136.645 109.676 135.923 110.125L136.451 110.974C136.929 110.677 137.574 110.563 138.567 110.545C139.058 110.535 139.612 110.549 140.251 110.565C140.887 110.581 141.602 110.6 142.4 110.6V109.6ZM172.128 98.4655C165.049 106.331 156.303 109.699 142.404 109.6L142.396 110.6C156.497 110.701 165.551 107.269 172.872 99.1345L172.128 98.4655ZM180.9 72.9957C180.85 78.8141 180.229 83.4056 178.84 87.4242C177.453 91.4377 175.292 94.9068 172.126 98.4678L172.874 99.1322C176.108 95.4932 178.347 91.9123 179.785 87.7508C181.221 83.5944 181.85 78.8859 181.9 73.0043L180.9 72.9957ZM173.446 52.3536C176.628 55.5348 178.492 57.9726 179.567 60.9451C180.647 63.9304 180.95 67.5033 180.9 72.9955L181.9 73.0045C181.95 67.4967 181.653 63.7696 180.508 60.6049C179.358 57.4274 177.372 54.8652 174.154 51.6464L173.446 52.3536ZM153.399 46.4901C161.138 44.9227 167.969 46.974 173.45 52.3567L174.15 51.6433C168.431 46.026 161.262 43.8773 153.201 45.5099L153.399 46.4901ZM145.362 49.1258C145.957 48.7598 147.156 48.2749 148.643 47.7876C150.115 47.3052 151.824 46.8347 153.407 46.4884L153.193 45.5116C151.576 45.8653 149.835 46.3448 148.332 46.8374C146.844 47.3251 145.543 47.8403 144.838 48.2742L145.362 49.1258ZM141.359 48.8353C141.558 49.209 141.753 49.5433 141.977 49.785C142.219 50.047 142.52 50.2265 142.911 50.2373C143.263 50.2471 143.622 50.1165 143.991 49.9339C144.368 49.7472 144.819 49.4712 145.368 49.1218L144.832 48.2782C144.281 48.6288 143.87 48.8778 143.547 49.0379C143.215 49.2022 143.038 49.2404 142.939 49.2377C142.88 49.2361 142.818 49.2217 142.711 49.1057C142.584 48.9692 142.442 48.741 142.241 48.3647L141.359 48.8353ZM129.284 46.0929C131.553 45.7066 134.334 45.8983 136.697 46.4614C137.876 46.7424 138.932 47.1117 139.758 47.5354C140.598 47.9671 141.133 48.422 141.361 48.8394L142.239 48.3606C141.867 47.678 141.114 47.1079 140.214 46.6458C139.299 46.1758 138.162 45.7826 136.928 45.4886C134.466 44.9017 131.547 44.6934 129.116 45.1071L129.284 46.0929ZM125.376 46.6942L129.276 46.0942L129.124 45.1058L125.224 45.7058L125.376 46.6942ZM125.197 51.9523L125.797 46.2523L124.803 46.1477L124.203 51.8477L125.197 51.9523ZM112.863 97.3254C114.603 96.2503 116.03 95.0625 117.236 93.317C118.437 91.5791 119.4 89.316 120.258 86.117C121.97 79.7342 123.298 69.491 125.197 51.9538L124.203 51.8462C122.302 69.409 120.98 79.5658 119.292 85.858C118.45 88.9965 117.525 91.1397 116.414 92.7486C115.307 94.35 113.997 95.4497 112.337 96.4746L112.863 97.3254ZM103.984 96.7774C105.013 98.3204 106.084 99.2623 107.575 99.3369C108.995 99.4079 110.666 98.6737 112.862 97.3262L112.338 96.4738C110.134 97.8263 108.705 98.3921 107.625 98.3381C106.616 98.2877 105.787 97.6796 104.816 96.2226L103.984 96.7774ZM104.505 78.7268C103.457 85.8138 102.926 89.6982 102.85 92.0966C102.812 93.303 102.887 94.1672 103.083 94.8916C103.281 95.6227 103.594 96.1797 103.981 96.7731L104.819 96.2269C104.456 95.6703 104.207 95.2148 104.048 94.6303C103.888 94.039 103.813 93.2845 103.85 92.1284C103.924 89.8017 104.443 85.9862 105.495 78.8731L104.505 78.7268ZM106.204 59.4647C106.273 59.993 106.282 60.9298 106.23 62.2C106.179 63.4596 106.07 65.0167 105.914 66.7682C105.603 70.2707 105.104 74.5369 104.505 78.7293L105.495 78.8707C106.096 74.6631 106.597 70.3793 106.911 66.8568C107.067 65.0958 107.177 63.5216 107.229 62.2406C107.281 60.9702 107.277 59.957 107.196 59.3353L106.204 59.4647ZM145.373 59.6222C143.08 61.6088 141.69 63.2526 140.665 66.1982C139.657 69.0943 139.002 73.2497 138.104 80.2362L139.096 80.3638C139.998 73.3503 140.643 69.3057 141.61 66.5268C142.56 63.7974 143.82 62.2912 146.027 60.3779L145.373 59.6222ZM164.5 73.2C164.5 66.2922 161.985 60.9647 158.291 58.3185C156.44 56.9925 154.299 56.3476 152.063 56.5298C149.828 56.7118 147.536 57.7163 145.369 59.6248L146.031 60.3752C148.064 58.5837 150.159 57.6882 152.144 57.5265C154.126 57.3649 156.035 57.9325 157.709 59.1315C161.065 61.5353 163.5 66.5078 163.5 73.2H164.5ZM149.366 99.1956C153.679 98.6171 157.466 95.3732 160.158 90.6996C162.857 86.0156 164.5 79.8278 164.5 73.2H163.5C163.5 79.6722 161.893 85.6844 159.292 90.2004C156.684 94.7269 153.121 97.6829 149.234 98.2044L149.366 99.1956ZM141.934 98.5715C143.719 99.2018 146.899 99.504 149.362 99.1961L149.238 98.2039C146.901 98.496 143.881 98.1982 142.266 97.6285L141.934 98.5715ZM138.104 80.2366C137.257 86.8638 136.941 90.9011 137.459 93.5342C137.724 94.875 138.209 95.8826 138.967 96.6881C139.718 97.4849 140.703 98.049 141.904 98.5601L142.296 97.6399C141.147 97.151 140.307 96.6527 139.695 96.0025C139.091 95.3612 138.676 94.5375 138.441 93.3408C137.959 90.8989 138.243 87.0362 139.096 80.3634L138.104 80.2366ZM26.9 109.5H10V110.5H26.9V109.5ZM11.6815 90.1963L11.6811 90.1996L12.6742 90.3162L12.6746 90.3128L11.6815 90.1963ZM12.6794 90.2724C12.7877 89.3462 12.8943 88.435 12.9966 87.5579L12.0034 87.4421C11.9011 88.3189 11.7945 89.2299 11.6861 90.1562L12.6794 90.2724ZM11.5 1.9L11.9167 2.80914L11.9281 2.80374L11.5 1.9ZM1.5 12.2L0.580855 11.8061L0.57502 11.8197L0.569592 11.8335L1.5 12.2ZM178.2 1L178.47 0.037036L178.456 0.0332569L178.443 0.0298576L178.2 1ZM190.1 11.5L189.185 11.9027L189.19 11.9155L189.196 11.9281L190.1 11.5ZM190.5 179.8L191.419 180.194L191.425 180.18L191.43 180.167L190.5 179.8ZM180.5 190.1L180.083 189.191L180.072 189.196L180.5 190.1ZM12.2 190.5L11.8061 191.419L11.8197 191.425L11.8335 191.43L12.2 190.5ZM1.9 180.5L2.80914 180.083L2.80374 180.072L1.9 180.5ZM12.178 90.2546L11.1848 90.1384L13.1713 90.3707L12.178 90.2546ZM12.1828 90.2143L13.176 90.3305L11.1895 90.0981L12.1828 90.2143ZM11.0833 0.990935C6.05436 3.29589 2.77715 6.68139 0.580855 11.8061L2.41915 12.5939C4.42285 7.91861 7.34564 4.90411 11.9167 2.80906L11.0833 0.990935ZM95 -1C57.4068 -1 37.4668 -0.975071 26.4523 -0.724742C15.5002 -0.475831 13.1991 -0.0113427 11.0719 0.996262L11.9281 2.80374C13.6009 2.01134 15.4498 1.52583 26.4977 1.27474C37.4833 1.02507 57.3932 1 95 1V-1ZM178.443 0.0298576C178.034 -0.0722974 177.214 -0.146813 176.117 -0.213398C174.977 -0.282615 173.43 -0.347819 171.489 -0.40888C167.606 -0.53105 162.121 -0.637394 155.1 -0.724922C141.056 -0.899997 120.852 -1 95 -1V1C120.848 1 141.044 1.1 155.075 1.27492C162.091 1.36239 167.562 1.46855 171.426 1.59013C173.359 1.65094 174.884 1.71543 175.996 1.78293C177.151 1.85306 177.766 1.9223 177.957 1.97014L178.443 0.0298576ZM191.015 11.0973C188.699 5.83245 183.767 1.5204 178.47 0.037036L177.93 1.96296C182.633 3.2796 187.101 7.16755 189.185 11.9027L191.015 11.0973ZM193 95.8C193 57.9567 192.975 37.8168 192.725 26.6651C192.476 15.5792 192.012 13.2003 191.004 11.0719L189.196 11.9281C189.988 13.5997 190.474 15.5208 190.725 26.7099C190.975 37.8332 191 57.9433 191 95.8H193ZM191.43 180.167C191.813 179.195 192.077 177.793 192.28 175.234C192.484 172.656 192.631 168.815 192.737 162.905C192.95 151.082 193 130.897 193 95.8H191C191 130.903 190.95 151.068 190.738 162.87C190.631 168.773 190.485 172.563 190.286 175.076C190.085 177.607 189.837 178.755 189.57 179.433L191.43 180.167ZM180.917 191.009C185.946 188.704 189.223 185.319 191.419 180.194L189.581 179.406C187.577 184.081 184.654 187.096 180.083 189.191L180.917 191.009ZM96.2 193C134.143 193 154.283 192.975 165.41 192.725C176.473 192.476 178.8 192.012 180.928 191.004L180.072 189.196C178.4 189.988 176.527 190.474 165.365 190.725C154.267 190.975 134.157 191 96.2 191V193ZM11.8335 191.43C12.8055 191.813 14.207 192.077 16.7664 192.28C19.3441 192.484 23.1855 192.631 29.0945 192.737C40.9181 192.95 61.1034 193 96.2 193V191C61.0966 191 40.9319 190.95 29.1305 190.738C23.227 190.631 19.4372 190.485 16.9243 190.286C14.393 190.085 13.2445 189.837 12.5665 189.57L11.8335 191.43ZM0.990935 180.917C3.29589 185.946 6.68139 189.223 11.8061 191.419L12.5939 189.581C7.91861 187.577 4.90411 184.654 2.80906 180.083L0.990935 180.917ZM-1 96.2C-1 134.143 -0.975069 154.283 -0.724747 165.41C-0.475871 176.473 -0.0116728 178.8 0.996262 180.928L2.80374 180.072C2.01167 178.4 1.52587 176.527 1.27475 165.365C1.02507 154.267 1 134.157 1 96.2H-1ZM0.569592 11.8335C0.186676 12.8055 -0.0770176 14.207 -0.279692 16.7664C-0.483818 19.3441 -0.631038 23.1855 -0.737338 29.0945C-0.950037 40.9181 -1 61.1034 -1 96.2H1C1 61.0966 1.05004 40.9319 1.26234 29.1305C1.36854 23.227 1.51507 19.4372 1.71407 16.9243C1.91452 14.393 2.16332 13.2445 2.43041 12.5665L0.569592 11.8335ZM13.1713 90.3707L13.176 90.3305L11.1895 90.0981L11.1848 90.1384L13.1713 90.3707ZM11.1895 90.0981C11.1888 90.1042 11.1855 90.1323 11.1848 90.1384L13.1713 90.3707C13.1737 90.3499 13.1736 90.3512 13.176 90.3305L11.1895 90.0981Z" fill="black" mask="url(#path-1-inside-1_2_14)"/>
</svg>
